<?xml version="1.0" standalone="no"?>
<!DOCTYPE svg PUBLIC "-//W3C//DTD SVG 20010904//EN"
 "http://www.w3.org/TR/2001/REC-SVG-20010904/DTD/svg10.dtd">
<svg version="1.0" xmlns="http://www.w3.org/2000/svg"
 width="80.000000pt" height="80.000000pt" viewBox="0 0 80.000000 80.000000"
 preserveAspectRatio="xMidYMid meet">
<metadata>
Created by potrace 1.14, written by Peter Selinger 2001-2017
</metadata>
<g transform="translate(0.000000,80.000000) scale(0.100000,-0.100000)"
fill="#000000" stroke="none">
<path d="M310 790 c0 -5 -13 -10 -30 -10 -16 0 -30 -4 -30 -10 0 -5 -10 -10
-23 -10 -12 0 -29 -9 -37 -20 -8 -11 -18 -20 -23 -20 -12 0 -77 -68 -77 -81 0
-6 -9 -20 -21 -30 -14 -12 -22 -34 -26 -73 -3 -31 -10 -56 -14 -56 -5 0 -9
-36 -9 -80 0 -44 4 -80 9 -80 4 0 11 -25 14 -56 4 -39 12 -61 26 -73 12 -10
21 -24 21 -30 0 -14 65 -81 80 -81 5 0 10 -4 10 -10 0 -5 9 -10 20 -10 11 0
20 -4 20 -10 0 -5 7 -10 15 -10 8 0 15 -4 15 -10 0 -5 18 -10 40 -10 22 0 40
-4 40 -10 0 -5 25 -10 55 -10 30 0 55 5 55 10 0 6 16 10 35 10 19 0 35 5 35
10 0 6 9 10 19 10 11 0 23 9 26 20 3 11 11 20 16 20 5 0 9 7 9 15 0 23 46 65
70 65 13 0 20 7 20 20 0 11 5 20 10 20 6 0 10 9 10 20 0 11 5 20 10 20 6 0 10
14 10 30 0 17 5 30 10 30 6 0 10 40 10 100 0 60 -4 100 -10 100 -5 0 -10 14
-10 30 0 17 -4 30 -10 30 -5 0 -10 9 -10 20 0 11 -4 20 -10 20 -5 0 -10 7 -10
15 0 9 -5 22 -11 29 -45 54 -69 76 -82 76 -9 0 -19 9 -22 20 -4 14 -15 20 -36
20 -16 0 -29 5 -29 10 0 6 -11 10 -25 10 -14 0 -25 5 -25 10 0 6 -28 10 -65
10 -37 0 -65 -4 -65 -10z m90 -140 c0 -5 -4 -10 -10 -10 -5 0 -10 -13 -10 -29
0 -16 -4 -31 -9 -33 -5 -1 -12 -29 -16 -60 l-7 -58 61 0 c54 0 61 -2 61 -20 0
-11 -4 -20 -10 -20 -5 0 -10 -9 -10 -19 0 -11 -7 -26 -15 -35 -8 -8 -15 -21
-15 -28 0 -8 -9 -20 -20 -28 -11 -8 -20 -22 -20 -32 0 -10 -4 -18 -10 -18 -5
0 -13 -12 -16 -27 -12 -46 -44 -70 -44 -33 0 11 5 20 10 20 6 0 10 9 10 19 0
11 4 21 10 23 5 2 12 33 16 71 l7 67 -57 0 c-49 0 -56 2 -56 20 0 11 5 20 10
20 6 0 10 8 10 18 0 10 9 24 20 32 11 8 20 21 20 29 0 7 8 21 19 30 10 9 22
31 26 50 7 34 23 60 38 61 4 0 7 -4 7 -10z m-240 -74 c0 -2 -3 -11 -6 -20 -9
-23 -24 -20 -24 4 0 11 7 20 15 20 8 0 15 -2 15 -4z m550 -146 c0 -5 -4 -10
-10 -10 -5 0 -10 5 -10 10 0 6 5 10 10 10 6 0 10 -4 10 -10z"/>
<path d="M613 125 c-27 -30 -6 -85 32 -85 27 0 45 26 45 64 0 34 -2 36 -32 36
-18 -1 -39 -7 -45 -15z"/>
</g>
</svg>
